Coordinates
version=1
nRows=26
nColumns=30
inDegrees=yes

Units are S.I. units (second, meters, Newtons, ...)
Angles are in degrees.

endheader
time	floatyaw	floatroll	floatpitch	floatx	floaty	floatz	pro_sup_l	deviation_l	flexion_l	cmc_flexion_l	cmc_abduction_l	mp_flexion_l	ip_flexion_l	2mcp_flexion_l	2mcp_abduction_l	2pm_flexion_l	2md_flexion_l	3mcp_flexion_l	3mcp_abduction_l	3pm_flexion_l	3md_flexion_l	4mcp_flexion_l	4mcp_abduction_l	4pm_flexion_l	4md_flexion_l	5mcp_flexion_l	5mcp_abduction_l	5pm_flexion_l	5md_flexion_l
0.005000	-160.147433	-5.066637	-73.570646	-0.055455	-0.120070	-0.087286	109.449285	22.775396	-7.732668	1.635260	36.091267	-25.668104	-47.567925	41.665883	15.272466	57.105724	61.134664	51.448703	6.553471	66.233445	53.805009	48.958177	-5.921259	74.955315	64.783969	28.003653	-14.296006	81.416212	72.322462
0.015000	-160.147433	-5.066637	-73.570646	-0.055269	-0.115531	-0.086715	107.470223	22.496079	-6.464309	1.151982	36.506563	-25.869655	-48.418469	43.456079	15.524345	54.762387	61.231606	52.191696	6.495563	65.630189	54.581642	50.039792	-5.977130	74.508018	65.529817	28.510245	-14.269653	81.414679	73.072936
0.025000	-160.147433	-5.066637	-73.570646	-0.055058	-0.110876	-0.086114	105.517545	22.030255	-5.139535	1.079023	36.459115	-26.365956	-49.436212	44.853765	15.699127	52.509414	60.734860	52.784053	6.449265	64.703079	54.872813	50.803658	-6.034514	73.802853	66.027562	28.739681	-14.302087	81.162648	73.527081
0.035000	-160.147433	-5.066637	-73.570646	-0.054921	-0.106544	-0.085580	103.687806	21.425973	-3.761936	1.196848	35.999124	-27.169133	-50.537684	46.059412	15.830217	50.444803	59.865663	53.481261	6.416597	63.523811	54.773099	51.557304	-6.093572	72.926806	66.426986	29.042821	-14.372763	80.660521	73.788122
0.045000	-160.147433	-5.066637	-73.570646	-0.054875	-0.102921	-0.085179	102.100092	20.772973	-2.409410	1.327318	35.310609	-28.168699	-51.635037	47.159692	15.926447	48.601599	58.818248	54.329968	6.395095	62.178828	54.408197	52.385977	-6.148968	71.966303	66.794185	29.572301	-14.453563	79.927629	73.897467
0.055000	-160.147433	-5.066637	-73.570646	-0.054872	-0.100251	-0.084942	100.840097	20.160916	-1.210390	1.360696	34.619651	-29.194630	-52.642641	48.149361	15.990530	47.003460	57.754218	55.235625	6.382107	60.792808	53.931204	53.205883	-6.195289	71.033677	67.148027	30.278902	-14.525675	79.028234	73.883527
0.065000	-160.147433	-5.066637	-73.570646	-0.054833	-0.098585	-0.084871	99.923666	19.646725	-0.287321	1.260561	34.079244	-30.096751	-53.482924	48.974507	16.029055	45.685989	56.798453	56.051534	6.375683	59.517435	53.493702	53.865440	-6.229864	70.255694	67.486472	30.982201	-14.581557	78.075673	73.786828
0.075000	-160.147433	-5.066637	-73.570646	-0.054694	-0.097786	-0.084947	99.297568	19.243826	0.303812	1.054038	33.692505	-30.798921	-54.098501	49.573798	16.052354	44.683643	56.031661	56.652101	6.374068	58.492509	53.204153	54.240952	-6.253131	69.734991	67.794895	31.475575	-14.619198	77.208904	73.653907
0.085000	-160.147433	-5.066637	-73.570646	-0.054427	-0.097583	-0.085133	98.870830	18.933038	0.600384	0.813161	33.314262	-31.305317	-54.463965	49.908613	16.069426	44.001525	55.483309	56.973985	6.375368	57.800565	53.099028	54.291035	-6.267618	69.510187	68.048335	31.617146	-14.637155	76.548430	73.517741
0.095000	-160.147433	-5.066637	-73.570646	-0.054051	-0.097673	-0.085391	98.555350	18.684961	0.709728	0.630773	32.726914	-31.666661	-54.586907	49.976888	16.083942	43.597939	55.132778	57.021992	6.377706	57.440581	53.145173	54.057954	-6.276452	69.540623	68.219786	31.370286	-14.634056	76.152270	73.385757
0.105000	-160.147433	-5.066637	-73.570646	-0.053608	-0.097815	-0.085678	98.294897	18.480263	0.751795	0.593827	31.749454	-31.934406	-54.496120	49.808732	16.094131	43.392828	54.923912	56.847210	6.379570	57.336586	53.271580	53.628145	-6.282098	69.726804	68.294938	30.786707	-14.611085	75.995655	73.244022
0.115000	-160.147433	-5.066637	-73.570646	-0.053136	-0.097887	-0.085955	98.072557	18.318035	0.803922	0.757797	30.326532	-32.130270	-54.224869	49.450424	16.095837	43.296550	54.789948	56.514500	6.380190	57.376564	53.410858	53.081848	-6.285737	69.955662	68.283785	29.956380	-14.573895	75.986028	73.072336
0.125000	-160.147433	-5.066637	-73.570646	-0.052657	-0.097889	-0.086192	97.899475	18.210843	0.878037	1.127947	28.557278	-32.243349	-53.799902	48.949088	16.086162	43.240063	54.678213	56.077937	6.379823	57.459933	53.527516	52.462775	-6.287379	70.145514	68.219483	28.961446	-14.531683	76.006019	72.859344
0.135000	-160.147433	-5.066637	-73.570646	-0.052176	-0.097892	-0.086374	97.795047	18.172637	0.937279	1.655103	26.653030	-32.249705	-53.242334	48.346229	16.065405	43.190416	54.563265	55.573466	6.379666	57.529688	53.621873	51.780931	-6.286421	70.268738	68.143645	27.858605	-14.493651	75.963708	72.609659
0.145000	-160.147433	-5.066637	-73.570646	-0.051695	-0.097977	-0.086495	97.769174	18.207792	0.935340	2.251318	24.847354	-32.138512	-52.578097	47.679479	16.036703	43.148170	54.443904	55.025437	6.381154	57.577626	53.713957	51.037940	-6.282326	70.345957	68.086679	26.689312	-14.465063	75.827676	72.340915
0.155000	-160.147433	-5.066637	-73.570646	-0.051225	-0.098179	-0.086559	97.813426	18.306564	0.851934	2.821858	23.304663	-31.928271	-51.848520	46.986541	16.004329	43.133516	54.328610	54.456924	6.384877	57.627163	53.820878	50.251918	-6.275127	70.421344	68.054205	25.499116	-14.445387	75.632357	72.073487
0.165000	-160.147433	-5.066637	-73.570646	-0.050793	-0.098475	-0.086575	97.903172	18.447808	0.705167	3.299618	22.071407	-31.664565	-51.110971	46.305912	15.971930	43.169836	54.220207	53.895020	6.389859	57.707726	53.941185	49.464556	-6.265583	70.534646	68.026116	24.346752	-14.429576	75.452690	71.819051
0.175000	-160.147433	-5.066637	-73.570646	-0.050428	-0.098803	-0.086551	98.008037	18.606776	0.538639	3.665166	21.087077	-31.402174	-50.426275	45.672757	15.941325	43.270218	54.109855	53.368153	6.393851	57.834294	54.053785	48.728491	-6.254879	70.701920	67.968257	23.295646	-14.411559	75.361140	71.575221
0.185000	-160.147433	-5.066637	-73.570646	-0.050151	-0.099096	-0.086498	98.104708	18.764121	0.395919	3.943351	20.238785	-31.182999	-49.839217	45.111881	15.911912	43.429717	53.983094	52.898140	6.394633	57.999558	54.130369	48.085503	-6.244061	70.910363	67.850923	22.394031	-14.387694	75.389157	71.329731
0.195000	-160.147433	-5.066637	-73.570646	-0.049957	-0.099313	-0.086424	98.185435	18.911790	0.299221	4.180607	19.424184	-31.022498	-49.363979	44.631600	15.880814	43.625413	53.831855	52.492521	6.391467	58.179301	54.152703	47.549261	-6.233582	71.126894	67.665159	21.656779	-14.358198	75.512800	71.070990
0.205000	-160.147433	-5.066637	-73.570646	-0.049821	-0.099452	-0.086338	98.258283	19.052811	0.242810	4.417118	18.591748	-30.910784	-48.983810	44.222205	15.843990	43.824675	53.663119	52.142220	6.385715	58.345916	54.124042	47.101822	-6.223280	71.315076	67.428918	21.060218	-14.326141	75.668144	70.797918
0.215000	-160.147433	-5.066637	-73.570646	-0.049706	-0.099545	-0.086249	98.339829	19.195349	0.201358	4.668789	17.746885	-30.825069	-48.665181	43.860599	15.798196	43.998461	53.498630	51.826507	6.380186	58.481953	54.068425	46.704873	-6.212789	71.451505	67.180461	20.553118	-14.295230	75.785187	70.523206
0.225000	-160.147433	-5.066637	-73.570646	-0.049580	-0.099630	-0.086169	98.444700	19.344880	0.145861	4.926039	16.931732	-30.744582	-48.377660	43.519347	15.742997	44.133508	53.366158	51.522666	6.377647	58.586857	54.019063	46.318665	-6.202034	71.534131	66.962447	20.077597	-14.267968	75.820794	70.268335
0.235000	-160.147433	-5.066637	-73.570646	-0.049424	-0.099743	-0.086107	98.577451	19.499212	0.057876	5.165938	16.195605	-30.659907	-48.107910	43.176022	15.681726	44.237389	53.287029	51.214954	6.379386	58.674747	54.002616	45.918046	-6.191440	71.580288	66.804158	19.588934	-14.244926	75.774732	70.052973
0.245000	-160.147433	-5.066637	-73.570646	-0.049242	-0.099895	-0.086070	98.730451	19.648800	-0.064197	5.368026	15.571345	-30.573537	-47.860854	42.819258	15.620631	44.333467	53.266086	50.898505	6.384563	58.765697	54.027670	45.498325	-6.181725	71.617082	66.710169	19.066058	-14.224900	75.683214	69.884612
0.255000	-160.147433	-5.066637	-73.570646	-0.049049	-0.100083	-0.086061	98.888128	19.781253	-0.207918	5.524746	15.065176	-30.493561	-47.649507	42.450309	15.566430	44.447697	53.289003	50.577705	6.390608	58.875299	54.082836	45.070790	-6.173464	71.668779	66.660786	18.511228	-14.205518	75.595644	69.754375
